<svg width="75" height="28" viewBox="0 0 75 28" fill="none" xmlns="http://www.w3.org/2000/svg">
<path d="M60.4223 20.8943C61.0545 21.6006 61.8121 22.1836 62.6567 22.6138C63.4752 23.0219 64.3784 23.2311 65.293 23.2243C66.3879 23.2243 67.279 22.9444 67.9662 22.3846C68.6534 21.8249 68.9974 21.0609 68.9981 20.0927C68.9981 19.252 68.7878 18.577 68.367 18.068C67.9463 17.5589 67.3224 17.107 66.4954 16.7123C65.6677 16.317 64.6557 15.8904 63.4594 15.4328C62.8229 15.2039 62.0908 14.8918 61.2631 14.4964C60.4173 14.0904 59.6276 13.5767 58.9135 12.9681C58.1618 12.3285 57.5394 11.5509 57.08 10.6772C56.5963 9.7735 56.3544 8.68473 56.3544 7.41094C56.3544 5.88225 56.7429 4.56429 57.5199 3.45706C58.2969 2.34983 59.3535 1.49677 60.6895 0.897899C62.0263 0.299747 63.5224 0.000671387 65.1778 0.000671387C66.8832 0.000671387 68.354 0.287074 69.5901 0.85988C70.7515 1.3826 71.8017 2.12342 72.6837 3.04212C73.4611 3.84797 74.1116 4.76728 74.6129 5.76856L70.3342 8.13655C69.982 7.50627 69.5525 6.92244 69.0557 6.39857C68.5664 5.88319 67.9911 5.45683 67.3557 5.13855C66.6772 4.81088 65.9312 4.64717 65.1778 4.6606C64.109 4.6606 63.307 4.90899 62.7718 5.40576C62.2367 5.90253 61.9691 6.48185 61.9691 7.14373C61.9612 7.7842 62.1938 8.40435 62.6209 8.8817C63.0554 9.37775 63.7176 9.84845 64.6076 10.2938C65.6965 10.8199 66.8192 11.2727 67.9684 11.6494C68.8337 11.9561 69.6698 12.3396 70.4667 12.7954C71.2616 13.2501 71.9923 13.8091 72.6392 14.4573C73.2933 15.114 73.8122 15.8927 74.1664 16.7493C74.5357 17.6277 74.7204 18.6415 74.7204 19.7907C74.7204 21.0899 74.4669 22.2485 73.96 23.2667C73.4611 24.2723 72.7432 25.1534 71.8593 25.8454C70.9613 26.5477 69.9484 27.089 68.8656 27.4454C67.7379 27.8173 66.5575 28.0044 65.3701 27.9994C63.8005 28.011 62.2461 27.692 60.8079 27.063C59.4272 26.4614 58.1754 25.5991 57.1213 24.5234C56.117 23.5104 55.2908 22.3353 54.6772 21.0475L58.5736 18.2972C59.0895 19.2301 59.7098 20.1014 60.4223 20.8943Z" fill="#3169B3"/>
<path d="M49.9195 8.30817C49.241 6.64811 48.2266 5.14628 46.9399 3.89698C46.5518 3.52148 46.1412 3.16998 45.7103 2.84442L42.9415 7.64122C43.4125 8.15953 43.8141 8.7368 44.1364 9.35855C44.8236 10.6838 45.1672 12.199 45.1672 13.9044C45.1672 15.6098 44.8171 17.1251 44.1168 18.4503C43.4469 19.7413 42.4364 20.8243 41.1949 21.5819C39.945 22.3459 38.4923 22.7279 36.8369 22.7279C36.0182 22.733 35.2026 22.627 34.4124 22.4129L31.6816 27.1434C33.3374 27.7258 35.0818 28.0154 36.8369 27.9994C38.9 27.9994 40.7908 27.6492 42.5092 26.949C44.1855 26.2771 45.7066 25.2694 46.979 23.9879C48.2472 22.7021 49.2468 21.1767 49.9195 19.5007C50.6313 17.7216 50.9881 15.8205 50.9699 13.9044C50.9699 11.8681 50.6197 10.0027 49.9195 8.30817Z" fill="#1996D4"/>
<path d="M26.9554 24.253L29.9316 19.0977C29.7948 18.8892 29.6634 18.6752 29.5417 18.446C28.8277 17.1222 28.471 15.6069 28.4718 13.9001C28.4725 12.1933 28.8298 10.6794 29.5439 9.35856C30.2246 8.06897 31.2409 6.98705 32.4854 6.22695C33.7324 5.46297 35.1836 5.08098 36.839 5.08098C37.223 5.08089 37.6067 5.10265 37.9882 5.14615L40.694 0.455803C39.4316 0.147608 38.1363 -0.00523402 36.8368 0.000672471C34.9246 -0.0173269 33.0263 0.326154 31.2416 1.01304C29.5671 1.65881 28.0415 2.63859 26.7576 3.89274C25.4738 5.14689 24.4586 6.64918 23.7738 8.30817C23.0583 10.0027 22.7006 11.8681 22.7006 13.9044C22.6827 15.8188 23.033 17.7187 23.7325 19.5007C24.3954 21.1821 25.3966 22.7094 26.674 23.9879C26.7675 24.0792 26.862 24.165 26.9554 24.253Z" fill="#3169B3"/>
<path d="M17.4727 5.25259V0.630676H5.74682H3.9893H0.475342V27.3683H3.9893H5.74682H17.4727V22.7474H5.74682V15.4512H16.7091V10.9053H5.74682V5.25259H17.4727Z" fill="#3169B3"/>
</svg>
