<svg width="16" height="16" viewBox="0 0 16 16" fill="currentColor" xmlns="http://www.w3.org/2000/svg">
<g clip-path="url(#clip0_2302_2161)">
<path d="M0 14.4674C0.0726551 14.1819 0.119839 13.8872 0.222976 13.6129C0.50107 12.8732 1.00214 12.3193 1.69362 11.939C1.72452 11.9219 1.75375 11.9022 1.79801 11.8755C1.35539 11.3834 1.17167 10.8177 1.29151 10.172C1.35062 9.8251 1.50169 9.50043 1.72897 9.23176C1.95625 8.9631 2.25143 8.76027 2.58377 8.64441C2.9161 8.52855 3.27343 8.50389 3.61854 8.573C3.96365 8.64211 4.28391 8.80247 4.54596 9.03737C5.18399 9.61093 5.57232 10.8603 4.69169 11.8567C4.94556 12.0496 5.21906 12.2233 5.45164 12.4412C6.11097 13.0581 6.43583 13.8333 6.46172 14.7333C6.46792 14.8978 6.44075 15.0618 6.38184 15.2155C6.32294 15.3692 6.23351 15.5094 6.11896 15.6276C6.00441 15.7458 5.86711 15.8397 5.71532 15.9034C5.56353 15.9672 5.4004 15.9995 5.23576 15.9986C3.90292 16.0036 2.56993 16.0036 1.23681 15.9986C0.640535 15.9986 0.172034 15.6187 0.0292291 15.0385C0.0213227 15.0145 0.0115498 14.9912 0 14.9687L0 14.4674ZM3.22606 15.061C3.88162 15.061 4.53761 15.061 5.19317 15.061C5.41114 15.061 5.53432 14.9412 5.52263 14.7371C5.49883 14.3159 5.39986 13.9156 5.17772 13.5515C4.65619 12.6958 3.58557 12.2992 2.55796 12.5944C1.60426 12.8674 0.98669 13.6609 0.939924 14.7429C0.931155 14.9495 1.05225 15.0606 1.27397 15.061C1.92453 15.0623 2.57508 15.061 3.22606 15.061ZM3.22898 11.5366C3.82108 11.5366 4.26202 11.0987 4.26745 10.5026C4.27246 9.94529 3.79728 9.4715 3.2319 9.47108C2.66653 9.47067 2.18801 9.94404 2.19218 10.5001C2.1951 11.0937 2.6373 11.5357 3.22898 11.5366Z"/>
<path d="M8.25216 0C8.39204 0.0375695 8.53485 0.0659553 8.66972 0.114378C9.94244 0.57356 10.3855 2.18571 9.52697 3.22847C9.50024 3.26061 9.47268 3.2915 9.43552 3.33492C9.47728 3.36121 9.51402 3.38543 9.55202 3.40755C10.6189 4.03371 11.1901 4.96167 11.226 6.20439C11.2465 6.90443 10.7162 7.45963 10.0151 7.46422C8.67167 7.47201 7.3281 7.47201 5.9844 7.46422C5.28541 7.46004 4.75511 6.90235 4.77599 6.2023C4.81315 4.96084 5.38437 4.03454 6.45332 3.40964C6.48004 3.39377 6.50844 3.38042 6.53683 3.36414C6.54476 3.35913 6.54936 3.34869 6.56355 3.33074C6.33324 3.08446 6.16842 2.78434 6.0842 2.45788C5.80861 1.36001 6.54936 0.221242 7.66549 0.0300556C7.6951 0.0220522 7.72412 0.0120097 7.75234 0L8.25216 0ZM7.98618 6.52832H8.18911C8.77745 6.52832 9.36537 6.52832 9.95329 6.52832C10.1921 6.52832 10.2974 6.41979 10.2894 6.18185C10.2859 6.06249 10.2742 5.94352 10.2544 5.82577C10.0639 4.70871 9.00669 3.87258 7.89264 3.95231C6.67254 4.03997 5.74806 4.97211 5.7134 6.14887C5.70505 6.4273 5.80151 6.52749 6.08044 6.5279C6.71624 6.52874 7.35149 6.52888 7.98618 6.52832ZM7.9987 3.00222C8.59247 3.00222 9.03299 2.56516 9.03675 1.97031C9.03251 1.69952 8.92222 1.4412 8.72956 1.25082C8.5369 1.06044 8.27724 0.953179 8.00635 0.952086C7.73545 0.950993 7.47493 1.05615 7.28074 1.24497C7.08655 1.43379 6.97417 1.69122 6.96775 1.96196C6.96859 2.55932 7.40702 3.00138 7.9987 3.00222Z" />
<path d="M11.3292 11.8677C10.484 10.9352 10.7446 9.69704 11.4381 9.05418C12.1572 8.38419 13.2979 8.36123 14.0379 8.99115C14.7273 9.57765 15.1235 10.8454 14.2132 11.8756C14.2579 11.9028 14.3005 11.9291 14.3435 11.9545C15.3974 12.5807 15.9578 13.5053 15.9987 14.7305C16.0229 15.4464 15.4789 15.9953 14.7615 15.997C13.4334 16.0006 12.1053 16.0006 10.7771 15.997C10.0577 15.9949 9.50944 15.4264 9.54243 14.7101C9.59963 13.474 10.1688 12.5448 11.2461 11.9312C11.2686 11.9182 11.2907 11.9045 11.3125 11.8894C11.3154 11.8882 11.3183 11.8827 11.3292 11.8677ZM12.7714 15.0611H14.6922C14.9744 15.0611 15.0813 14.9484 15.0609 14.6696C14.9235 12.8203 13.1911 12.1395 11.8749 12.6734C10.9884 13.0328 10.5667 13.7378 10.4844 14.6691C10.4606 14.9367 10.568 15.0607 10.8356 15.0611C11.4803 15.0617 12.1256 15.0617 12.7714 15.0611ZM12.7651 11.5363C13.3643 11.5388 13.8136 11.09 13.809 10.4927C13.8061 9.94082 13.3359 9.47538 12.7773 9.4712C12.2123 9.46703 11.7334 9.93498 11.7334 10.4948C11.7329 11.0871 12.1751 11.5342 12.7651 11.5363Z" />
<path d="M8.60967 10.9785H7.42255C7.43215 11.1075 7.46431 11.2361 7.44635 11.3584C7.42046 11.5512 7.28851 11.6723 7.1002 11.7157C7.01346 11.7393 6.9215 11.7354 6.8371 11.7044C6.7527 11.6735 6.68004 11.617 6.62919 11.5429C6.43753 11.2778 6.25673 11.004 6.08636 10.7251C5.98448 10.5581 6.01371 10.3857 6.12102 10.2242C6.27677 9.99085 6.4296 9.75499 6.58869 9.52332C6.74778 9.29164 6.98203 9.22067 7.2096 9.34048C7.43716 9.46028 7.51775 9.69321 7.41336 9.96664C7.40794 9.98083 7.40543 9.99586 7.39833 10.0238H8.60424C8.58963 9.97874 8.57543 9.937 8.56248 9.89484C8.52918 9.79539 8.53137 9.68747 8.56867 9.58945C8.60597 9.49143 8.67609 9.40935 8.76709 9.35718C8.95624 9.24155 9.18882 9.24572 9.32161 9.41896C9.54336 9.71381 9.7491 10.0204 9.93792 10.3373C10.0244 10.4793 9.98218 10.6412 9.89032 10.7806C9.7329 11.0194 9.5759 11.2586 9.41347 11.494C9.25688 11.7211 9.00384 11.7917 8.78713 11.6748C8.57042 11.5579 8.48858 11.315 8.58462 11.0578C8.59046 11.0399 8.59631 11.0203 8.60967 10.9785Z" />
<path d="M1.56082 7.15781C1.63491 6.57614 1.78949 6.00757 2.02013 5.46844C2.50134 4.33023 3.29821 3.3534 4.3167 2.65323C4.57768 2.47165 4.85953 2.50254 5.01862 2.73088C5.17771 2.95922 5.11173 3.23932 4.85494 3.42049C3.62648 4.28765 2.85762 5.45731 2.54834 6.92947C2.52079 7.0618 2.50868 7.19747 2.47318 7.32729C2.44721 7.43752 2.3809 7.53404 2.28732 7.59785C2.19374 7.66166 2.07966 7.68815 1.96752 7.6721C1.71907 7.63286 1.55289 7.43249 1.56082 7.15781Z" />
<path d="M14.442 7.17307C14.442 7.4515 14.2575 7.65438 14.0032 7.674C13.7614 7.6932 13.5589 7.51788 13.5067 7.24988C13.4587 7.00526 13.4199 6.75772 13.3535 6.51811C13.0069 5.27039 12.3012 4.26812 11.2602 3.50003C11.2101 3.46288 11.1575 3.42907 11.1078 3.3915C10.8869 3.22452 10.8335 2.9415 10.9826 2.72944C11.1316 2.51738 11.4143 2.46854 11.6465 2.6255C12.1219 2.94616 12.5518 3.32949 12.9246 3.7651C13.7312 4.70101 14.2541 5.84746 14.432 7.06996C14.4379 7.11171 14.4404 7.15345 14.442 7.17307Z" />
</g>
<defs>
<clipPath id="clip0_2302_2161">
<rect width="16" height="16" fill="white"/>
</clipPath>
</defs>
</svg>
