<svg width="22" height="22" viewBox="0 0 22 22" fill="currentColor" xmlns="http://www.w3.org/2000/svg">
<path fill-rule="evenodd" clip-rule="evenodd" d="M10.2929 0.292893C10.4805 0.105357 10.7348 0 11 0C12.4446 0 13.875 0.284523 15.2096 0.837325C16.5441 1.39013 17.7568 2.20038 18.7782 3.22183C19.7997 4.24327 20.6099 5.4559 21.1627 6.79048C21.7155 8.12506 22 9.55546 22 11C22 11.5523 21.5523 12 21 12H11C10.4478 12 10 11.5523 10 11V1C10 0.734784 10.1054 0.48043 10.2929 0.292893ZM12 2.05573V10H19.9443C19.8506 9.16141 19.6391 8.33849 19.315 7.55585C18.8627 6.46392 18.1997 5.47177 17.364 4.63604C16.5283 3.80031 15.5361 3.13738 14.4442 2.68508C13.6615 2.3609 12.8386 2.14949 12 2.05573ZM7.91657 1.43004C8.13746 1.93623 7.90618 2.52564 7.4 2.74653C6.05259 3.33452 4.86973 4.24362 3.95484 5.39436C3.03994 6.5451 2.42087 7.90244 2.15173 9.3477C1.8826 10.793 1.97161 12.2822 2.41097 13.6851C2.85033 15.088 3.62667 16.3619 4.67211 17.3955C5.71756 18.4291 7.00028 19.1908 8.40813 19.6141C9.81598 20.0375 11.3061 20.1095 12.7482 19.8238C14.1903 19.5382 15.5405 18.9037 16.6807 17.9757C17.8209 17.0477 18.7164 15.8546 19.289 14.5005C19.5041 13.9919 20.0908 13.7539 20.5995 13.969C21.1082 14.1841 21.3462 14.7708 21.1311 15.2795C20.4313 16.9344 19.3367 18.3927 17.9431 19.5269C16.5495 20.6611 14.8993 21.4366 13.1368 21.7857C11.3742 22.1348 9.55294 22.0468 7.83224 21.5294C6.11153 21.0121 4.54377 20.081 3.266 18.8178C1.98823 17.5545 1.03937 15.9975 0.502376 14.2828C-0.0346211 12.5681 -0.143405 10.748 0.185535 8.98156C0.514475 7.21513 1.27112 5.55616 2.38933 4.1497C3.50753 2.74324 4.95325 1.63212 6.60008 0.913467C7.10627 0.692576 7.69568 0.923853 7.91657 1.43004Z" />
</svg>
