<svg xmlns="http://www.w3.org/2000/svg" viewBox="0 0 14.79 14.79"><defs><style>.cls-1{fill-rule:evenodd;}</style></defs><g id="Layer_2" data-name="Layer 2"><g id="Layer_1-2" data-name="Layer 1"><path d="M13.56,6a.49.49,0,0,0-.15-.23l-.5-.47c-.1-.08-.2-.18-.45-.41a.24.24,0,0,1-.06-.09.2.2,0,0,1,0-.11V1.24c0-.34-.17-.54-.47-.54h-2a.63.63,0,0,0-.19,0,.57.57,0,0,0-.16.11.59.59,0,0,0-.1.17.4.4,0,0,0,0,.18V2L7.62.22C7.3-.07,7.1-.07,6.8.22l-5,4.83L.28,6.5A.8.8,0,0,0,0,6.93a.81.81,0,0,0,0,.49.69.69,0,0,0,.29.38.77.77,0,0,0,.45.14H2v4.72a1.57,1.57,0,0,0,.4,1.12,1.45,1.45,0,0,0,.48.34,1.33,1.33,0,0,0,.58.13H5.88l.14,0a.42.42,0,0,0,.17-.1A.42.42,0,0,0,6.3,14a.43.43,0,0,0,0-.19.46.46,0,0,0-.5-.48H3.56a.63.63,0,0,1-.4-.12.67.67,0,0,1-.22-.55V7.57c0-.4-.17-.57-.55-.57H1.12L7.21,1.15,8,1.9,9.53,3.39a.53.53,0,0,0,.26.15.44.44,0,0,0,.3,0,.49.49,0,0,0,.23-.22.42.42,0,0,0,0-.29V1.67h1.11V4.93a.65.65,0,0,0,.14.44l.73.7.48.44a.58.58,0,0,0,.38.11.41.41,0,0,0,.24-.11.46.46,0,0,0,.13-.22A.57.57,0,0,0,13.56,6Z"/><path class="cls-1" d="M7.46,7.82a.36.36,0,0,1,.37-.36h2.56a.37.37,0,0,1,.37.36v2.57a.38.38,0,0,1-.37.37H7.83a.37.37,0,0,1-.37-.37Zm.73.37V10H10V8.19Zm3.3-.37a.37.37,0,0,1,.37-.36h2.57a.36.36,0,0,1,.36.36v2.57a.37.37,0,0,1-.36.37H11.86a.38.38,0,0,1-.37-.37Zm.74.37V10h1.83V8.19ZM7.46,11.86a.37.37,0,0,1,.37-.37h2.56a.38.38,0,0,1,.37.37v2.56a.37.37,0,0,1-.37.37H7.83a.36.36,0,0,1-.37-.37Zm.73.36v1.84H10V12.22Zm3.3-.36a.38.38,0,0,1,.37-.37h2.57a.37.37,0,0,1,.36.37v2.56a.36.36,0,0,1-.36.37H11.86a.37.37,0,0,1-.37-.37Zm.74.36v1.84h1.83V12.22Z"/></g></g></svg>