<svg width="24" height="24" viewBox="0 0 24 24" fill="currentColor" xmlns="http://www.w3.org/2000/svg">
<path d="M0 9.89304C0.174375 9.68954 0.325 9.45474 0.5275 9.28819C4.14083 6.27979 7.75667 3.27639 11.375 0.278012C11.8231 -0.0939163 12.1744 -0.0932902 12.6294 0.283647L17.8044 4.57522C17.8562 4.61842 17.9112 4.65787 17.9981 4.72487C17.9981 4.22771 17.9981 3.77063 17.9981 3.31292C17.9981 2.71683 18.3106 2.40063 18.9075 2.39938C19.5044 2.39813 20.11 2.39938 20.7113 2.39938C21.2738 2.39938 21.6 2.72873 21.6006 3.2885C21.6006 4.68667 21.6056 6.08485 21.5969 7.48365C21.5927 7.56348 21.6089 7.64307 21.6439 7.71492C21.6789 7.78677 21.7315 7.84853 21.7969 7.8944C22.385 8.37214 22.9719 8.85051 23.5469 9.34704C23.7231 9.49982 23.8506 9.70958 24.0006 9.89367V10.2694C23.9381 10.3846 23.8906 10.5135 23.8069 10.6112C23.4725 11.0032 23.1331 11.3908 22.7838 11.769C22.5138 12.0607 22.1187 12.1058 21.7787 11.9086C21.7281 11.8792 21.6769 11.8516 21.6044 11.8109V12.1183C21.6044 15.7324 21.5987 19.3465 21.6106 22.9606C21.6106 23.4515 21.465 23.8072 21.0006 24.0025H3C2.53562 23.8072 2.38875 23.4521 2.39 22.9606C2.40188 19.339 2.39625 15.718 2.39625 12.0964V11.8147C1.78688 12.1478 1.50312 12.0964 1.06062 11.5968C0.910625 11.4271 0.75125 11.2649 0.61125 11.0877C0.400625 10.8179 0.203125 10.5405 0 10.2687V9.89304ZM20.8037 23.1892V22.8761C20.8037 19.0575 20.8054 15.238 20.8088 11.4177C20.8154 11.3192 20.7972 11.2205 20.7558 11.1309C20.7144 11.0413 20.6512 10.9636 20.5719 10.9049C17.774 8.59609 14.9792 6.27979 12.1875 3.95597C12.0463 3.83825 11.9631 3.83074 11.8181 3.95221C9.00312 6.29523 6.18479 8.63282 3.36313 10.965C3.30749 11.005 3.26273 11.0584 3.23293 11.1202C3.20313 11.1819 3.18923 11.2502 3.1925 11.3188C3.19708 15.1929 3.19833 19.0666 3.19625 22.9399V23.186L20.8037 23.1892ZM1.79938 11.2205L1.91375 11.1297C5.14208 8.45354 8.37 5.77741 11.5975 3.10128C11.9419 2.81639 12.0594 2.81639 12.41 3.10504L21.0431 10.2687C21.425 10.5856 21.8081 10.9011 22.2 11.2248L23.2 10.0978L12.005 0.802718L0.803125 10.089L1.79938 11.2205ZM20.7881 7.04911V3.21399H18.7987C18.7987 3.92216 18.7987 4.61529 18.8025 5.30906C18.8074 5.36898 18.8357 5.42455 18.8813 5.46372C19.5 5.98466 20.1281 6.50186 20.7881 7.04911Z" fill="currentColor"/>
<path d="M11.6029 9.06961C11.6029 8.58473 11.5981 8.14554 11.6029 7.70714C11.6029 7.48194 11.6897 7.26795 11.9243 7.21746C12.093 7.17941 12.2699 7.20662 12.4193 7.2936C12.5326 7.37374 12.6 7.57811 12.6089 7.73119C12.633 8.16798 12.6169 8.60637 12.6169 9.03034C12.9054 9.08483 13.1657 9.11048 13.4116 9.18421C13.861 9.31914 14.2574 9.58991 14.5459 9.95915C14.8345 10.3284 15.001 10.7779 15.0225 11.2455C15.0358 11.4951 15.0358 11.7453 15.0225 11.9949C15.0138 12.1173 14.9596 12.2322 14.8705 12.3169C14.7815 12.4017 14.664 12.4503 14.541 12.4533C14.4179 12.4563 14.2982 12.4135 14.2051 12.3332C14.112 12.2529 14.0522 12.1408 14.0375 12.0189C14.0085 11.7512 14.0294 11.4788 13.9997 11.2111C13.9274 10.5395 13.3513 10.0674 12.6338 10.1051C12.6298 10.1964 12.6217 10.291 12.6217 10.3856C12.6217 11.5958 12.6274 12.806 12.6145 14.0153C12.6145 14.2381 12.6949 14.3359 12.8893 14.3992C13.1553 14.485 13.4148 14.5924 13.6751 14.6966C14.5204 15.0364 14.984 15.6671 15.041 16.5672C15.073 17.0463 15.0693 17.5272 15.0298 18.0057C14.9333 19.1863 14.0656 20.0278 12.8837 20.128C12.8033 20.1344 12.7286 20.1496 12.6169 20.1648C12.6169 20.6113 12.6169 21.0464 12.6169 21.4848C12.6169 21.8856 12.4442 22.0971 12.1244 22.1027C11.8046 22.1084 11.6078 21.8872 11.6037 21.4744C11.5997 21.0456 11.6037 20.6169 11.6037 20.1568L11.1433 20.128C10.5921 20.0985 10.0701 19.8715 9.67342 19.4886C9.27672 19.1057 9.03204 18.5928 8.9844 18.0442C8.96096 17.7855 8.9556 17.5255 8.96833 17.266C8.9836 16.9454 9.19572 16.7467 9.47935 16.7507C9.76297 16.7547 9.96143 16.9591 9.97348 17.2804C9.98473 17.5297 9.96625 17.7829 10.0048 18.0274C10.1245 18.7848 10.7962 19.236 11.5812 19.0933C11.5916 19.0479 11.5986 19.0019 11.6021 18.9555C11.6021 17.6956 11.6078 16.4349 11.5949 15.175C11.5839 15.1184 11.5601 15.065 11.5253 15.0189C11.4905 14.9728 11.4456 14.9352 11.394 14.909C11.0293 14.7487 10.65 14.6156 10.2772 14.4698C9.48256 14.1588 9.03261 13.5737 8.96673 12.7298C8.92776 12.231 8.92776 11.7299 8.96673 11.2311C9.06716 9.96402 10.0265 9.08884 11.2968 9.0672C11.3868 9.068 11.4752 9.06961 11.6029 9.06961ZM11.6029 10.1115C10.593 10.0025 9.97268 10.5491 9.96866 11.5092C9.96866 11.8594 9.96866 12.2089 9.96866 12.5591C9.96866 12.8741 10.0546 13.1866 10.3278 13.3437C10.7159 13.5665 11.1441 13.7196 11.6029 13.924V10.1107V10.1115ZM12.6274 19.1005C13.3875 19.1711 13.9812 18.6301 14.0246 17.8447C14.0415 17.5369 14.0182 17.2259 14.0318 16.9174C14.072 16.0358 13.655 15.6351 12.6274 15.4363V19.1005Z" fill="currentColor"/>
</svg>
