<svg width="26" height="24" viewBox="0 0 26 24" fill="currentColor" xmlns="http://www.w3.org/2000/svg">
<path d="M0 9.64912C0.147014 9.17806 0.363859 8.74192 0.841041 8.54161C1.1244 8.42259 1.42751 8.35756 1.73476 8.34988C2.92496 8.32844 4.11516 8.3456 5.30536 8.33396C5.44561 8.32742 5.57912 8.27193 5.6827 8.17714C6.8486 7.02554 8.00878 5.86801 9.16325 4.70455C9.49035 4.37561 9.80949 4.0387 10.1489 3.68893C9.87747 3.09127 9.84095 2.41336 10.0466 1.79001C10.2303 1.22645 10.5862 0.790924 11.061 0.449117C11.8977 -0.153639 13.1786 -0.145063 14.0012 0.458918C14.9378 1.1456 15.4542 2.31987 14.8937 3.72324C16.392 5.2191 17.8924 6.71415 19.3948 8.20838C19.4902 8.28962 19.6113 8.33434 19.7366 8.33457C20.9348 8.34376 22.1335 8.3407 23.3317 8.34008C24.0135 8.34008 24.566 8.58511 24.8692 9.22094C24.9791 9.4566 25.037 9.71315 25.0389 9.97316C25.0491 14.1079 25.0509 18.2425 25.0444 22.3768C25.0444 23.3098 24.4031 23.9578 23.4738 23.9958C23.4334 23.9958 23.3923 23.9958 23.3513 23.9958C16.1354 23.9958 8.91986 23.9958 1.70475 23.9958C1.00398 23.9958 0.474119 23.7281 0.154977 23.0935C0.0942437 22.954 0.0424794 22.8108 0 22.6647L0 9.64912ZM10.7688 4.53916C10.7026 4.61818 10.6499 4.69169 10.585 4.7554C9.14017 6.20348 7.69454 7.65177 6.24809 9.10027C6.15666 9.19762 6.04545 9.27429 5.92194 9.32511C5.79843 9.37593 5.66548 9.39973 5.53201 9.39491C4.2683 9.38817 3.00459 9.39123 1.74089 9.39491C1.21838 9.39491 1.03951 9.575 1.03951 10.1012C1.03951 14.1547 1.03951 18.2076 1.03951 22.2598C1.03951 22.7762 1.22818 22.96 1.75069 22.96C8.93354 22.96 16.1164 22.96 23.2992 22.96C23.8199 22.96 24.0043 22.7762 24.0049 22.2543C24.0049 18.2016 24.0049 14.1488 24.0049 10.0957C24.0049 9.57255 23.8248 9.39491 23.298 9.39491C22.0343 9.39491 20.7706 9.39062 19.5069 9.39491C19.3734 9.39904 19.2405 9.37457 19.1172 9.32311C18.9939 9.27166 18.883 9.19442 18.792 9.09659C17.3448 7.6387 15.8928 6.1849 14.4361 4.73518C14.3749 4.67393 14.31 4.61696 14.2481 4.55938C13.2968 5.39062 11.8462 5.45616 10.7688 4.53916ZM14.0888 2.61451C14.0941 2.40676 14.0579 2.20005 13.9824 2.00644C13.9069 1.81284 13.7935 1.63623 13.649 1.48693C13.5044 1.33763 13.3316 1.21864 13.1405 1.13691C12.9494 1.05519 12.744 1.01236 12.5362 1.01093C12.3284 1.00951 12.1224 1.04952 11.9302 1.12862C11.738 1.20772 11.5636 1.32433 11.417 1.47163C11.2704 1.61893 11.1546 1.79397 11.0765 1.98652C10.9983 2.17907 10.9593 2.38527 10.9617 2.59307C10.9632 3.00386 11.1247 3.3979 11.412 3.6915C11.6993 3.98511 12.0898 4.15514 12.5005 4.1655C13.3538 4.18388 14.079 3.4727 14.0888 2.61451Z" fill="currentColor"/>
<path d="M16.1796 17.0292C16.1796 16.0116 16.1796 14.9939 16.1796 13.9763C16.1755 13.8214 16.1794 13.6664 16.1912 13.5119C16.2022 13.3914 16.2559 13.2787 16.3426 13.1942C16.4293 13.1097 16.5432 13.0589 16.664 13.0509C16.7848 13.0429 16.9045 13.0783 17.0015 13.1507C17.0986 13.2231 17.1666 13.3277 17.1934 13.4458C17.2118 13.5261 17.2202 13.6084 17.2185 13.6908C17.2185 15.3545 17.2185 17.018 17.2185 18.6813C17.2185 18.9263 17.1535 19.1328 16.9183 19.2498C16.6592 19.3784 16.4154 19.2951 16.2102 19.0047C15.4143 17.8703 14.6198 16.7352 13.8267 15.5995C13.7568 15.4894 13.6666 15.3936 13.5609 15.3171V15.5689C13.5609 16.6045 13.5609 17.6402 13.5609 18.6758C13.5609 19.0164 13.4286 19.221 13.1817 19.2884C12.8338 19.3796 12.5324 19.1334 12.5238 18.7371C12.5153 18.3622 12.5238 17.9873 12.5238 17.6118C12.5238 16.2911 12.5238 14.9702 12.5238 13.6492C12.5238 13.3429 12.6549 13.1524 12.8914 13.0807C13.1278 13.009 13.3336 13.0917 13.518 13.3423C13.5615 13.4035 13.6025 13.4617 13.6448 13.5224L15.9878 16.8577C16.0332 16.9227 16.0828 16.9851 16.1306 17.0482L16.1796 17.0292Z" fill="currentColor"/>
<path d="M6.28107 16.8003C6.71843 17.1678 6.82134 17.6377 6.78826 18.1571C6.77295 18.3923 6.78826 18.6306 6.75886 18.8628C6.74792 18.9864 6.68904 19.1008 6.59482 19.1815C6.5006 19.2622 6.37852 19.3028 6.25473 19.2946C6.00113 19.2916 5.7996 19.1397 5.76468 18.8726C5.73944 18.5893 5.72921 18.3049 5.73405 18.0205C5.72976 17.6726 5.37632 17.253 5.02226 17.2297C4.6486 17.2052 4.2731 17.2211 3.89822 17.2211C3.82716 17.2211 3.75549 17.2279 3.6532 17.2334C3.6532 17.6812 3.6532 18.1179 3.6532 18.5553C3.65502 18.677 3.64352 18.7986 3.61889 18.9179C3.59061 19.0266 3.52699 19.1227 3.43806 19.1912C3.34913 19.2598 3.23993 19.2968 3.12766 19.2964C3.01539 19.2961 2.90642 19.2584 2.81792 19.1893C2.72942 19.1202 2.6664 19.0237 2.6388 18.9148C2.61502 18.8035 2.60372 18.6899 2.60511 18.5761C2.60266 16.9712 2.60266 15.3665 2.60511 13.762C2.60511 13.223 2.78888 13.0398 3.31935 13.0386C3.91353 13.0386 4.50832 13.0331 5.10312 13.0386C6.09179 13.0496 6.72946 13.6511 6.78214 14.6312C6.7999 14.9645 6.79133 15.2995 6.78214 15.6334C6.77993 15.8514 6.7345 16.0667 6.64849 16.267C6.56248 16.4673 6.4376 16.6486 6.28107 16.8003ZM3.66361 16.154C4.229 16.154 4.77234 16.1651 5.31751 16.1491C5.54845 16.1418 5.71996 15.936 5.72915 15.6793C5.74324 15.3118 5.74447 14.9442 5.72915 14.5816C5.71751 14.2956 5.53313 14.1161 5.24707 14.0983C4.99592 14.0824 4.74293 14.0903 4.49117 14.0897C4.21797 14.0897 3.94538 14.0897 3.66667 14.0897L3.66361 16.154Z" fill="currentColor"/>
<path d="M8.88209 16.6947V18.2604H9.15651C9.73477 18.2604 10.3136 18.2567 10.8919 18.2604C11.2478 18.2641 11.4787 18.4791 11.4757 18.7841C11.4726 19.0892 11.2527 19.2938 10.909 19.2962C10.0698 19.3028 9.23063 19.3028 8.39143 19.2962C8.03308 19.2925 7.84442 19.0873 7.8291 18.7259C7.8291 18.6849 7.8291 18.6445 7.8291 18.6034C7.8291 16.9814 7.8291 15.3595 7.8291 13.7379C7.8291 13.2276 8.01287 13.0389 8.51455 13.0371C9.29046 13.0371 10.0645 13.0371 10.8368 13.0371C11.1884 13.0371 11.3942 13.1786 11.4536 13.4383C11.5228 13.7385 11.3629 13.9982 11.0603 14.0576C10.932 14.079 10.802 14.0884 10.672 14.0858C10.0796 14.0889 9.48791 14.0858 8.88393 14.0858V15.6515H9.62328C10.0472 15.6515 10.4711 15.6466 10.8943 15.6515C11.2515 15.6576 11.4806 15.8702 11.4769 16.1746C11.4732 16.4791 11.241 16.6861 10.8827 16.6886C10.2218 16.6984 9.56203 16.6947 8.88209 16.6947Z" fill="currentColor"/>
<path d="M20.8753 14.0887V14.4042C20.8753 15.7927 20.8753 17.1791 20.8753 18.5635C20.8769 18.6772 20.8664 18.7907 20.8441 18.9022C20.8185 19.0134 20.7561 19.1127 20.667 19.184C20.5778 19.2552 20.4672 19.2941 20.3531 19.2945C20.239 19.2948 20.1281 19.2566 20.0385 19.1859C19.9489 19.1152 19.8859 19.0163 19.8597 18.9053C19.8366 18.7939 19.8257 18.6803 19.8272 18.5665C19.8272 17.1781 19.8272 15.7916 19.8272 14.4073V14.0887C19.4879 14.0887 19.1724 14.0979 18.8575 14.0887C18.4514 14.074 18.2229 13.8174 18.2885 13.4688C18.3017 13.3713 18.3455 13.2804 18.4135 13.2093C18.4814 13.1381 18.5702 13.0902 18.667 13.0725C18.746 13.0531 18.827 13.0429 18.9084 13.0419C19.8701 13.0394 20.832 13.0394 21.7941 13.0419C22.12 13.0419 22.3295 13.1699 22.4036 13.3941C22.5231 13.7561 22.2781 14.0728 21.8523 14.0893C21.5393 14.0979 21.2294 14.0887 20.8753 14.0887Z" fill="currentColor"/>
<path d="M12.5359 8.34076C13.6765 8.34076 14.8173 8.34076 15.9583 8.34076C16.0801 8.33861 16.2018 8.35074 16.3209 8.3769C16.4267 8.40744 16.5197 8.47154 16.5859 8.55954C16.6521 8.64754 16.6879 8.75468 16.6879 8.86481C16.6879 8.97493 16.6521 9.08207 16.5859 9.17007C16.5197 9.25808 16.4267 9.32217 16.3209 9.35271C16.21 9.37823 16.0965 9.39036 15.9828 9.38885C13.6763 9.38885 11.369 9.38885 9.06086 9.38885C8.94711 9.39036 8.83359 9.37823 8.72273 9.35271C8.61692 9.32217 8.52391 9.25808 8.45771 9.17007C8.39151 9.08207 8.35571 8.97493 8.35571 8.86481C8.35571 8.75468 8.39151 8.64754 8.45771 8.55954C8.52391 8.47154 8.61692 8.40744 8.72273 8.3769C8.84178 8.35074 8.96349 8.33861 9.08536 8.34076C10.2366 8.33954 11.3867 8.33954 12.5359 8.34076Z" fill="currentColor"/>
</svg>
