<svg width="24" height="24" viewBox="0 0 24 24" fill="currentColor" xmlns="http://www.w3.org/2000/svg">
  <path fill-rule="evenodd" clip-rule="evenodd" d="M14.2173 4.31735C12.9192 3.94185 11.547 3.90133 10.229 4.19956C8.91091 4.49779 7.68987 5.12505 6.6798 6.02281C5.66972 6.92057 4.90353 8.05958 4.45272 9.33355C4.26848 9.8542 3.69705 10.1269 3.1764 9.94267C2.65576 9.75843 2.38304 9.187 2.56728 8.66636C3.1308 7.0739 4.08854 5.65014 5.35114 4.52793C6.61373 3.40573 8.14002 2.62165 9.7876 2.24887C11.4352 1.87608 13.1503 1.92674 14.7731 2.39611C16.3906 2.86398 17.8637 3.73272 19.0559 4.92164L22 7.68809V3.99995C22 3.44767 22.4477 2.99995 23 2.99995C23.5523 2.99995 24 3.44767 24 3.99995V9.99995C24 10.5522 23.5523 11 23 11H17C16.4477 11 16 10.5522 16 9.99995C16 9.44767 16.4477 8.99995 17 8.99995H20.4755L17.6752 6.36871C17.6676 6.36155 17.6601 6.35427 17.6527 6.34688C16.6974 5.39107 15.5155 4.69284 14.2173 4.31735ZM0 14C0 13.4477 0.447715 13 1 13H7C7.55228 13 8 13.4477 8 14C8 14.5522 7.55228 15 7 15H3.52455L6.32478 17.6312C6.33239 17.6384 6.3399 17.6456 6.34728 17.653C7.30262 18.6088 8.4845 19.3071 9.78267 19.6826C11.0808 20.0581 12.453 20.0986 13.771 19.8004C15.0891 19.5021 16.3101 18.8749 17.3202 17.9771C18.3303 17.0793 19.0965 15.9403 19.5473 14.6664C19.7315 14.1457 20.3029 13.873 20.8236 14.0572C21.3442 14.2415 21.617 14.8129 21.4327 15.3335C20.8692 16.926 19.9115 18.3498 18.6489 19.472C17.3863 20.5942 15.86 21.3783 14.2124 21.751C12.5648 22.1238 10.8497 22.0732 9.22695 21.6038C7.6094 21.1359 6.13627 20.2672 4.94411 19.0783L2 16.3118V20C2 20.5522 1.55228 21 1 21C0.447715 21 0 20.5522 0 20V14Z"/>
</svg>
